<svg width="128" height="128" viewBox="0 0 128 128" fill="none" xmlns="http://www.w3.org/2000/svg">
<rect x="10" y="10" width="108" height="108" rx="20" fill="#4A90E2"/>
<path d="M40 88V40H56C64.8366 40 72 47.1634 72 56C72 64.8366 64.8366 72 56 72H48V88H40ZM48 56V48H56C60.4183 48 64 51.5817 64 56C64 60.4183 60.4183 64 56 64H48V56Z" fill="white"/>
<path d="M78 88V72H94C102.837 72 110 64.8366 110 56C110 47.1634 102.837 40 94 40H86V56H94C98.4183 56 102 59.5817 102 64C102 68.4183 98.4183 72 94 72H86V88H78Z" fill="white"/>
</svg>